<?xml version="1.0" encoding="utf-8"?>
<!-- Generator: Adobe Illustrator 18.1.0, SVG Export Plug-In . SVG Version: 6.00 Build 0)  -->
<svg version="1.1" id="Layer_1" xmlns="http://www.w3.org/2000/svg" xmlns:xlink="http://www.w3.org/1999/xlink" x="0px" y="0px"
	 viewBox="-293 276 205 61" enable-background="new -293 276 205 61" xml:space="preserve">
<g>
	<path fill="#F1633B" d="M-177.3,299.6c0.5,0,1-0.3,1-0.7c0-2,0-2.9,0-3.2c0,0.1,0,0.1,0,0.1c0-0.1,0-0.2,0-0.3c0-0.5,0-1.2,0-2.3
		c0-0.4-0.4-0.7-1-0.7l0,0c-3.4,0-6,0-8,0c0,0-1.4,0-5.6,0c-2,0-4.6,0-8,0c-0.5,0-1,0.3-1,0.7c0,1,0,1.7,0,2.2l0,0l0,0
		c0,0.1,0,0.2,0,0.3c0-0.2,0-0.3,0-0.3c0,0,0,0.2,0,0.3l0,0c0,0.1,0,0.1,0,0.2c0,0.1,0,0.2,0,0.3c0-0.1,0-0.1,0-0.2
		c0,0.5,0,1.4,0,2.8c0,0.4,0.4,0.7,1,0.7l0,0c0.9,0,1.8,0,2.8,0c0.5,0,1-0.3,1-0.7c0-0.7,0-1.4,0-2.1c0-0.4,0.5-0.7,1-0.7
		c0.9,0,1.8,0,2.8,0l0,0c0.5,0,1,0.3,1,0.7c0,5.4,0,10.8,0,16.2c0,0.4,0.5,0.7,1,0.7c0.9,0,1.9,0,2.8,0l0,0c0.5,0,1-0.3,1-0.7
		c0-5.4,0-10.8,0-16.2c0-0.4,0.4-0.7,1-0.7l0,0c0.9,0,1.8,0,2.8,0c0.5,0,1,0.3,1,0.7c0,0.7,0,1.4,0,2.1c0,0.4,0.5,0.7,1,0.7
		C-179.2,299.6-178.2,299.6-177.3,299.6L-177.3,299.6z"/>
	<path fill="#F1633B" d="M-257.2,296c-1-0.9-2.1-1.8-3.1-2.8c-0.5-0.5-1.2-0.7-1.9-0.7c-3.9,0-7.9,0-11.8,0l0,0
		c-0.7,0-1.4,0.3-1.9,0.8c-1,1-2.1,2.1-3.1,3.1c-0.5,0.5-0.8,1.2-0.8,1.9c0,5.5,0,11,0,16.6c0,0.7,0.3,1.4,0.8,1.8
		c1,0.9,2.1,1.8,3.1,2.6c0.4,0.3,1,0.5,1.5,0.5c0.1,0,0.3,0,0.4,0c3.9-0.6,7.9-1.1,11.8-1.6c0.7-0.1,1.4-0.5,1.9-1
		c1-1.1,2.1-2.1,3.1-3.1c0.5-0.5,0.8-1.1,0.8-1.8c0-0.8,0-1.5,0-2.3c0-0.4-0.4-0.8-0.9-0.8c0,0-0.1,0-0.1,0
		c-0.9,0.1-1.8,0.1-2.8,0.2c-0.5,0.1-1,0.5-1,1c0,0.2,0,0.4,0,0.6c0,0.7-0.3,1.3-0.8,1.8c-0.1,0.1-0.2,0.2-0.3,0.3
		c-0.5,0.5-1.2,0.9-1.9,1c-2.7,0.3-5.3,0.6-7.9,0.9c-0.1,0-0.2,0-0.3,0c-0.6,0-1.2-0.2-1.6-0.6c-0.1-0.1-0.2-0.2-0.3-0.3
		c-0.5-0.4-0.8-1.1-0.8-1.8c0-4.1,0-8.2,0-12.3c0-0.7,0.3-1.4,0.8-1.9c0.1-0.1,0.2-0.2,0.4-0.4c0.5-0.5,1.2-0.8,1.9-0.8
		c2.6-0.1,5.3-0.1,7.9-0.2c0,0,0.1,0,0.1,0c0.7,0,1.4,0.2,1.9,0.7c0.1,0.1,0.2,0.2,0.3,0.3c0.5,0.5,0.8,1.1,0.8,1.7
		c0,0.2,0,0.4,0,0.6c0,0.5,0.4,0.8,0.9,0.8c0,0,0,0,0.1,0c0.9,0,1.8-0.1,2.8-0.1c0.5,0,1-0.4,1-0.9c0-0.8,0-1.5,0-2.3
		C-256.4,297-256.7,296.4-257.2,296z"/>
	<path fill="#F1633B" d="M-223.5,313.9c0-0.7,0-1.4,0-2.2c0-0.4-0.4-0.7-0.9-0.7c0,0-0.1,0-0.1,0c-0.5,0-1.1,0.1-1.6,0.1
		c-0.1,0-0.1,0-0.2,0c-0.7,0-1.3-0.2-1.7-0.5c-1.1-0.8-2.2-1.6-3.3-2.5c-0.1-0.1-0.1-0.2-0.1-0.3c0.1-0.1,0.2-0.2,0.3-0.2
		c0.6,0,1.2-0.1,1.7-0.1c0.7,0,1.4-0.3,1.9-0.7c1-0.9,2.1-1.7,3.1-2.6c0.5-0.4,0.8-1,0.8-1.5c0-1.9,0-3.7,0-5.6
		c0-0.6-0.3-1.1-0.8-1.5c-1-0.8-2.1-1.6-3.1-2.5c-0.5-0.4-1.2-0.6-1.9-0.6c-7.1,0-14.3,0-21.4,0l0,0c-0.5,0-1,0.4-1,0.8
		c0,0.8,0,1.6,0,2.4c0,0.4,0.4,0.8,1,0.8h0c0.9,0,1.8,0,2.8-0.1c0,0,0,0,0,0c0.5,0,1,0.4,1,0.8c0,3.5,0,5.5,0,6.6c0,0,0,0.1,0,0.1
		c0,0.1,0,0.2,0,0.2c0,0.1,0,0.2,0,0.3c0,0.2,0,0.3,0,0.4l0,0c0,0.1,0,0.1,0,0.1l0,0c0,1.1,0,3.1,0,6.6c0,0.4-0.4,0.9-1,0.9
		c-0.9,0.1-1.8,0.2-2.8,0.2c-0.5,0.1-1,0.5-1,0.9c0,0.8,0,1.6,0,2.4c0,0.4,0.4,0.7,0.8,0.7c0,0,0.1,0,0.1,0
		c4.3-0.5,7.8-0.8,12.2-1.2c0.5-0.1,1-0.5,1-0.9c0-0.7,0-1.5,0-2.3c0-0.4-0.4-0.7-0.9-0.7c0,0-0.1,0-0.1,0c-0.9,0.1-1.8,0.1-2.8,0.2
		c0,0-0.1,0-0.1,0c-0.5,0-0.9-0.3-0.9-0.7c0-5.1,0-0.7,0.1-14.1c0-0.5,0.4-0.8,1-0.8c2.4,0,3.7-0.1,4.3-0.1c-0.5,0-0.7,0-0.7,0
		c-0.1,0,1.2,0,1.2,0c0,0-0.1,0-0.4,0c0.8,0,2.6,0,5.8-0.1c0,0,0,0,0.1,0c0.7,0,1.4,0.2,1.9,0.6c0.1,0.1,0.2,0.2,0.4,0.3
		c0.5,0.4,0.8,1,0.8,1.5c0,0.8,0,1.7,0,2.6c0,0.6-0.3,1.1-0.8,1.6c-0.1,0.1-0.2,0.2-0.3,0.3c-0.5,0.4-1.2,0.7-1.9,0.7
		c-1.8,0.1-3.6,0.1-5.4,0.2c-0.5,0-1,0.4-1,0.8c0,1,0,2,0,2.9c0,0.6,0.3,1.1,0.8,1.5c1,0.8,2.1,1.6,3.1,2.3c0.5,0.4,0.8,0.9,0.8,1.5
		c0,0.5,0,0.9,0,1.3c0,0.4,0.4,0.7,0.9,0.7c0,0,0.1,0,0.1,0c2.5-0.2,5-0.3,7.5-0.5C-224,314.7-223.5,314.3-223.5,313.9z"/>
	<path fill="#F1633B" d="M-217.9,314.3C-217.9,314.3-217.8,314.3-217.9,314.3c4.3-0.2,7.9-0.3,12.2-0.5c0.5,0,1-0.3,1-0.8
		c0-0.7,0-1.4,0-2.1c0-0.4-0.4-0.7-1-0.7h0c-0.9,0-1.9,0.1-2.8,0.1h0c-0.5,0-1-0.3-1-0.7c0-4.3,0-8.6,0-12.9c0-0.4,0.5-0.7,1-0.7
		c0.9,0,1.8,0,2.8,0c0.5,0,1-0.3,1-0.7c0-0.7,0-1.4,0-2.1c0-0.4-0.4-0.7-1-0.7c-4.3,0-7.9,0-12.2,0c-0.5,0-1,0.3-1,0.8
		c0,0.7,0,1.4,0,2.1c0,0.4,0.4,0.7,1,0.7l0,0c0.9,0,1.8,0,2.8,0l0,0c0.5,0,1,0.3,1,0.7c0,4.3,0,8.6-0.1,13c0,0.4-0.4,0.8-1,0.8
		c-0.9,0-1.8,0.1-2.8,0.1c-0.5,0-1,0.4-1,0.8c0,0.7,0,1.4,0,2.1C-218.8,314-218.4,314.3-217.9,314.3z"/>
	<path fill="#F1633B" d="M-167.8,310.5C-167.9,310.5-167.9,310.5-167.8,310.5c-1,0-1.9-0.1-2.8-0.1h0c-0.5,0-0.9,0.3-0.9,0.7
		c0,0.7,0,1.4,0,2.1c0,0.4,0.4,0.8,1,0.8c4.3,0.2,7.9,0.3,12.2,0.6c0,0,0.1,0,0.1,0c0.5,0,0.9-0.3,0.9-0.7c0-0.7,0-1.4,0-2.2
		c0-0.4-0.4-0.8-1-0.8c-0.9-0.1-1.8-0.1-2.8-0.1c-0.5,0-1-0.4-1-0.8c0-4.4,0-8.7-0.1-13.1c0-0.4,0.4-0.7,1-0.7l0,0
		c0.9,0,1.8,0,2.8,0l0,0c0.5,0,1-0.3,1-0.8c0-0.7,0-1.4,0-2.2c0-0.4-0.4-0.8-1-0.8l0,0c-4.3,0-7.9,0-12.2,0c-0.5,0-1,0.3-1,0.7
		c0,0.7,0,1.4,0,2.1c0,0.4,0.4,0.7,1,0.7c0.9,0,1.8,0,2.8,0c0.5,0,1,0.3,1,0.8c0,4.3,0,8.6,0.1,13
		C-166.9,310.2-167.3,310.5-167.8,310.5z"/>
	<path fill="#F1633B" d="M-130.2,308.7c-0.9-0.1-1.8-0.1-2.8-0.2c0,0-0.1,0-0.1,0c-0.5,0-0.9,0.3-0.9,0.8c0,0.2,0,0.4,0,0.6
		c0,0.6-0.3,1.2-0.8,1.6c-0.1,0.1-0.2,0.2-0.3,0.3c-0.4,0.3-1.1,0.5-1.7,0.5c-0.1,0-0.2,0-0.3,0c-2.6-0.2-5.3-0.4-8-0.6
		c-0.7-0.1-1.4-0.3-1.9-0.8c-0.1-0.1-0.2-0.2-0.3-0.3c-0.5-0.4-0.8-1-0.8-1.6c0-3.4,0-6.8-0.1-10.2c0-0.6,0.3-1.1,0.8-1.5
		c0.1-0.1,0.2-0.2,0.3-0.3c0.5-0.4,1.2-0.6,1.9-0.6c0,0,0,0,0.1,0c2.6,0,5.3,0.1,7.9,0.1c0.7,0,1.4,0.3,1.9,0.7
		c0.1,0.1,0.2,0.2,0.4,0.3c0.5,0.5,0.8,1,0.8,1.6c0,0.2,0,0.4,0,0.6c0,0.5,0.4,0.8,1,0.9c0.9,0,1.8,0.1,2.8,0.1c0,0,0,0,0.1,0
		c0.5,0,0.9-0.3,0.9-0.8c0-0.7,0-1.5,0-2.3c0-0.6-0.3-1.2-0.8-1.7c-1-0.9-2.1-1.8-3.1-2.7c-0.5-0.4-1.2-0.7-1.9-0.7l0,0
		c-3.9,0-7.9,0-11.8,0c-0.7,0-1.4,0.2-1.9,0.6c-1,0.8-2.1,1.7-3.1,2.5c-0.5,0.4-0.8,1-0.8,1.5c0,4.4,0,8.8,0.1,13.1
		c0,0.6,0.3,1.1,0.8,1.6c1,0.9,2.1,1.8,3.1,2.7c0.5,0.5,1.2,0.7,1.9,0.8c3.9,0.3,7.9,0.6,11.9,1c0.1,0,0.2,0,0.3,0
		c0.6,0,1.2-0.2,1.6-0.5c1-0.8,2.1-1.6,3.1-2.4c0.5-0.4,0.8-1,0.8-1.6c0-0.7,0-1.5,0-2.3C-129.2,309.2-129.7,308.8-130.2,308.7z"/>
	<path fill="#F1633B" d="M-102,311.2c-0.9-0.1-1.8-0.2-2.8-0.3c0,0-0.1,0-0.1,0c-0.5,0-0.9,0.4-0.9,0.8c0,0.9,0,1.8,0,2.7
		c0,0.5-0.4,0.8-0.8,0.8c-0.1,0-0.1,0-0.1,0c-2.5-0.3-5-0.6-7.4-0.9c-0.5-0.1-1-0.5-1-1c0-5.2,0-10.4-0.1-15.7c0-0.5,0.4-0.9,1-0.9
		h0c0.9,0,1.8,0.1,2.8,0.1h0c0.5,0,1-0.4,1-0.9c0-0.9,0-1.7,0-2.6c0-0.5-0.4-0.9-1-0.9l0,0c-4.3,0-7.9,0-12.2,0c-0.5,0-1,0.4-1,0.9
		c0,0.8,0,1.6,0,2.4c0,0.5,0.4,0.9,1,0.9c0.9,0,1.8,0,2.8,0.1c0.5,0,1,0.4,1,0.9c0,5.1,0,10.2,0.1,15.3c0,0.5-0.4,0.8-0.8,0.8
		c0,0-0.1,0-0.1,0c-0.9-0.1-1.8-0.2-2.8-0.3c0,0-0.1,0-0.1,0c-0.5,0-0.9,0.3-0.9,0.8c0,0.8,0,1.6,0,2.4c0,0.5,0.4,0.9,1,1
		c5.2,0.7,6.4,0.8,6.6,0.8c0.1,0-0.4-0.1-0.3-0.1c0,0,2,0.3,15.3,2.2c0.1,0,0.1,0,0.2,0c0.4,0,0.8-0.3,0.8-0.8c0-1.3,0-2.3,0-3
		c0,0,0-0.4,0-0.8c0-0.2,0-0.5,0-0.8c0-0.7,0-1.6,0-3C-101.1,311.8-101.5,311.3-102,311.2z"/>
</g>
</svg>
