<?xml version="1.0" encoding="utf-8"?>
<!-- Generator: Adobe Illustrator 17.1.0, SVG Export Plug-In . SVG Version: 6.00 Build 0)  -->
<!DOCTYPE svg PUBLIC "-//W3C//DTD SVG 1.1//EN" "http://www.w3.org/Graphics/SVG/1.1/DTD/svg11.dtd">
<svg version="1.1" id="Layer_1" xmlns="http://www.w3.org/2000/svg" xmlns:xlink="http://www.w3.org/1999/xlink" x="0px" y="0px"
	 viewBox="0 0 160 28" enable-background="new 0 0 160 28" xml:space="preserve">
<g>
	<path d="M91.49,7.994c0.462,0,0.832-0.277,0.832-0.647c0-1.709,0-2.518,0-2.818c0,0.046,0,0.069,0,0.116c0-0.092,0-0.162,0-0.277
		c0-0.462,0-1.086,0-1.964c0-0.347-0.393-0.647-0.855-0.647l0,0c-2.98,0-5.244,0-6.976,0c0,0-1.224,0-4.851,0
		c-1.733,0-4.019,0-6.976,0c-0.462,0-0.855,0.277-0.855,0.647c0,0.878,0,1.502,0,1.94l0,0l0,0c0,0.116,0,0.208,0,0.277
		c0-0.185,0-0.254,0-0.277c0,0.023,0,0.139,0,0.277l0,0c0,0.046,0,0.092,0,0.139c0,0.116,0,0.208,0,0.277c0-0.046,0-0.092,0-0.162
		c0,0.439,0,1.201,0,2.402c0,0.347,0.37,0.647,0.855,0.647l0,0c0.809,0,1.594,0,2.402,0c0.462,0,0.855-0.277,0.855-0.647
		c0-0.601,0-1.201,0-1.802c0-0.347,0.393-0.647,0.855-0.647c0.809,0,1.594,0,2.402,0l0,0c0.462,0,0.855,0.277,0.855,0.647
		c0,4.712,0,9.425,0,14.137c0,0.347,0.393,0.647,0.855,0.647c0.809,0,1.617,0,2.402,0l0,0c0.462,0,0.855-0.277,0.855-0.624
		c0-4.712,0-9.425,0-14.137c0-0.347,0.37-0.647,0.855-0.647l0,0c0.809,0,1.594,0,2.402,0c0.462,0,0.855,0.3,0.855,0.647
		c0,0.601,0,1.201,0,1.802c0,0.347,0.393,0.647,0.855,0.647C89.873,7.971,90.682,7.971,91.49,7.994
		C91.467,7.994,91.49,7.994,91.49,7.994z"/>
	<path d="M21.867,4.829c-0.901-0.785-1.802-1.594-2.703-2.402c-0.439-0.393-1.063-0.624-1.686-0.624c-3.442,0-6.884,0-10.326,0l0,0
		c-0.624,0-1.247,0.254-1.686,0.693C4.565,3.397,3.664,4.298,2.763,5.222C2.324,5.684,2.07,6.285,2.07,6.908
		c0,4.805,0,9.61,0,14.438c0,0.624,0.254,1.201,0.693,1.594c0.901,0.785,1.802,1.548,2.703,2.287c0.37,0.3,0.832,0.462,1.317,0.462
		c0.116,0,0.231,0,0.347-0.023c3.419-0.508,6.861-0.97,10.303-1.409c0.624-0.069,1.224-0.393,1.686-0.832
		c0.901-0.924,1.802-1.825,2.703-2.726c0.439-0.439,0.693-0.993,0.693-1.571c0-0.67,0-1.34,0-2.01c0-0.393-0.347-0.693-0.762-0.693
		c-0.023,0-0.046,0-0.069,0c-0.809,0.069-1.594,0.116-2.402,0.185c-0.462,0.046-0.855,0.416-0.855,0.832c0,0.162,0,0.347,0,0.508
		c0,0.578-0.254,1.132-0.693,1.594c-0.092,0.092-0.208,0.208-0.3,0.3c-0.439,0.462-1.063,0.762-1.686,0.832
		c-2.31,0.254-4.62,0.508-6.907,0.785c-0.092,0.023-0.208,0.023-0.3,0.023c-0.531,0-1.016-0.162-1.386-0.485
		c-0.092-0.092-0.208-0.185-0.3-0.254c-0.439-0.37-0.693-0.947-0.693-1.548c0-3.581,0-7.161,0-10.742
		c0-0.624,0.254-1.224,0.693-1.663c0.116-0.116,0.208-0.208,0.323-0.323c0.439-0.439,1.063-0.693,1.686-0.716
		c2.31-0.046,4.62-0.116,6.93-0.162c0.023,0,0.046,0,0.046,0c0.624,0,1.201,0.208,1.64,0.601c0.092,0.092,0.208,0.185,0.3,0.277
		c0.439,0.393,0.693,0.924,0.693,1.502c0,0.162,0,0.347,0,0.508c0,0.416,0.347,0.739,0.809,0.739c0.023,0,0.023,0,0.046,0
		c0.809-0.023,1.594-0.069,2.402-0.092c0.462-0.023,0.855-0.37,0.855-0.785c0-0.67,0-1.34,0-1.987
		C22.537,5.753,22.306,5.222,21.867,4.829z"/>
	<path d="M51.204,20.422c0-0.624,0-1.247,0-1.894c0-0.347-0.347-0.624-0.785-0.624c-0.023,0-0.046,0-0.046,0
		c-0.462,0.023-0.947,0.046-1.409,0.069c-0.046,0-0.116,0-0.162,0c-0.578,0-1.109-0.162-1.525-0.462
		c-0.947-0.716-1.917-1.432-2.864-2.148c-0.092-0.069-0.116-0.162-0.069-0.277c0.046-0.092,0.162-0.162,0.277-0.162
		c0.508-0.023,1.016-0.046,1.525-0.069c0.624-0.023,1.247-0.254,1.686-0.624c0.901-0.762,1.825-1.502,2.726-2.241
		c0.439-0.37,0.693-0.855,0.693-1.34c0-1.617,0.023-3.257,0.023-4.874c0-0.485-0.254-0.97-0.693-1.317
		c-0.901-0.716-1.802-1.432-2.703-2.148c-0.439-0.347-1.063-0.554-1.686-0.554c-6.214,0-12.428,0-18.665,0l0,0
		c-0.462,0-0.855,0.323-0.855,0.739c0,0.693,0,1.386,0,2.079c0,0.393,0.37,0.716,0.832,0.716h0.023
		c0.809-0.023,1.594-0.023,2.402-0.046c0,0,0,0,0.023,0c0.462,0,0.832,0.323,0.832,0.716c-0.023,3.072-0.023,4.828-0.023,5.775
		c0,0.023,0,0.046,0,0.092c0,0.069,0,0.139,0,0.208c0,0.069,0,0.162,0,0.277c0,0.162,0,0.3,0,0.37l0,0c0,0.046,0,0.069,0,0.069l0,0
		c0,0.97-0.023,2.703-0.023,5.729c0,0.393-0.393,0.762-0.855,0.785c-0.809,0.069-1.594,0.139-2.402,0.208
		c-0.462,0.046-0.855,0.416-0.855,0.809c0,0.693,0,1.386,0,2.079c0,0.37,0.323,0.647,0.739,0.647c0.023,0,0.069,0,0.115,0
		c3.719-0.393,6.838-0.693,10.603-1.016c0.462-0.046,0.855-0.393,0.855-0.762c0-0.647,0-1.317,0-1.964
		c0-0.37-0.347-0.647-0.785-0.647c-0.023,0-0.046,0-0.069,0c-0.809,0.046-1.594,0.115-2.402,0.185c-0.023,0-0.046,0-0.069,0
		c-0.439,0-0.762-0.277-0.762-0.647c0.023-4.435,0-0.647,0.046-12.266c0-0.393,0.393-0.716,0.855-0.716
		c2.125-0.023,3.234-0.046,3.765-0.046c-0.462,0-0.647,0-0.647,0c-0.046,0,1.016-0.023,1.063-0.023c0.023,0-0.092,0-0.393,0
		c0.739,0,2.241-0.023,5.013-0.069c0.023,0,0.023,0,0.046,0c0.624,0,1.224,0.208,1.663,0.554c0.116,0.092,0.208,0.162,0.323,0.254
		c0.439,0.347,0.67,0.832,0.67,1.317c0,0.739,0,1.502,0,2.241c0,0.508-0.254,0.993-0.693,1.363c-0.092,0.092-0.208,0.162-0.3,0.254
		c-0.439,0.37-1.063,0.601-1.686,0.624c-1.548,0.046-3.119,0.116-4.666,0.185c-0.462,0.023-0.855,0.347-0.855,0.739
		c0,0.855,0,1.709-0.023,2.541c0,0.508,0.254,0.993,0.693,1.34c0.901,0.693,1.802,1.363,2.703,2.033
		c0.439,0.323,0.693,0.809,0.693,1.317c0,0.393,0,0.762,0,1.155c0,0.347,0.347,0.624,0.762,0.624c0.023,0,0.046,0,0.069,0
		c2.171-0.162,4.343-0.3,6.514-0.439C50.834,21.115,51.204,20.792,51.204,20.422z"/>
	<path d="M56.124,20.838c0.023,0,0.046,0,0.046,0c3.742-0.185,6.861-0.3,10.626-0.393c0.462-0.023,0.855-0.3,0.855-0.67
		c0-0.601,0-1.201,0-1.825c0-0.347-0.37-0.624-0.832-0.624h-0.023c-0.809,0.023-1.617,0.046-2.402,0.069h-0.023
		c-0.462,0-0.832-0.277-0.832-0.624c0-3.742,0.023-7.461,0.023-11.204c0-0.347,0.393-0.647,0.855-0.647c0.809,0,1.594,0,2.402-0.023
		c0.462,0,0.855-0.3,0.855-0.647c0-0.601,0-1.201,0-1.825c0-0.347-0.37-0.647-0.855-0.647c-3.719,0-6.861,0-10.603,0
		c-0.462,0-0.855,0.3-0.855,0.67c0,0.624,0,1.247,0,1.871c0,0.37,0.37,0.647,0.832,0.647l0,0c0.809,0,1.594-0.023,2.402-0.023l0,0
		c0.462,0,0.832,0.277,0.832,0.647c-0.023,3.765-0.023,7.531-0.046,11.296c0,0.37-0.393,0.67-0.855,0.693
		c-0.809,0.023-1.594,0.069-2.402,0.092c-0.462,0.023-0.855,0.323-0.855,0.693c0,0.624,0,1.247,0,1.871
		C55.316,20.561,55.662,20.838,56.124,20.838z"/>
	<path d="M99.76,17.511c-0.023,0-0.023,0-0.046,0c-0.809-0.023-1.594-0.046-2.402-0.069h-0.023c-0.462,0-0.809,0.277-0.809,0.624
		c0,0.601,0,1.224,0,1.825c0,0.347,0.393,0.67,0.855,0.67c3.765,0.139,6.907,0.277,10.626,0.485c0.023,0,0.046,0,0.069,0
		c0.439,0,0.785-0.277,0.785-0.624c0-0.624,0-1.247,0-1.894c0-0.37-0.393-0.693-0.855-0.716c-0.809-0.046-1.594-0.069-2.402-0.116
		c-0.462-0.023-0.855-0.323-0.855-0.693c-0.023-3.812-0.023-7.6-0.046-11.411c0-0.37,0.37-0.647,0.832-0.647l0,0
		c0.809,0,1.594,0.023,2.402,0.023l0,0c0.462,0,0.832-0.3,0.832-0.67c0-0.624,0-1.247,0-1.894c0-0.37-0.393-0.67-0.855-0.67l0,0
		c-3.719,0-6.861,0-10.603,0c-0.462,0-0.855,0.3-0.855,0.647c0,0.601,0,1.224,0,1.825c0,0.347,0.393,0.647,0.855,0.647
		c0.809,0,1.594,0,2.402,0.023c0.462,0,0.855,0.3,0.855,0.67c0.023,3.765,0.023,7.531,0.046,11.296
		C100.569,17.234,100.199,17.511,99.76,17.511z"/>
	<path d="M132.562,15.964c-0.809-0.046-1.594-0.116-2.402-0.162c-0.023,0-0.046,0-0.069,0c-0.439,0-0.785,0.277-0.785,0.67
		c0,0.162,0,0.323,0,0.485c0,0.531-0.231,1.016-0.67,1.363c-0.092,0.069-0.208,0.162-0.3,0.231c-0.393,0.3-0.924,0.462-1.478,0.462
		c-0.069,0-0.139,0-0.231,0c-2.31-0.185-4.62-0.347-6.953-0.508c-0.624-0.046-1.247-0.277-1.686-0.67
		c-0.092-0.092-0.208-0.185-0.3-0.277c-0.439-0.393-0.693-0.878-0.693-1.386c-0.023-2.957-0.023-5.937-0.046-8.894
		c0-0.508,0.254-0.993,0.693-1.34c0.092-0.092,0.208-0.162,0.3-0.254c0.439-0.347,1.016-0.554,1.64-0.554c0.023,0,0.023,0,0.046,0
		c2.31,0.023,4.62,0.069,6.93,0.092c0.624,0,1.247,0.231,1.686,0.624c0.115,0.092,0.208,0.185,0.323,0.277
		c0.439,0.393,0.693,0.901,0.693,1.432c0,0.162,0,0.323,0,0.485c0,0.393,0.393,0.739,0.855,0.762
		c0.809,0.023,1.594,0.046,2.402,0.092c0.023,0,0.023,0,0.046,0c0.462,0,0.809-0.3,0.809-0.716c0-0.647,0-1.294,0-1.964
		c0-0.554-0.254-1.086-0.693-1.478c-0.901-0.809-1.825-1.594-2.726-2.356c-0.439-0.393-1.063-0.601-1.686-0.601l0,0
		c-3.442,0-6.884,0-10.326,0c-0.624,0-1.247,0.208-1.686,0.554c-0.901,0.739-1.802,1.455-2.703,2.171
		c-0.439,0.347-0.693,0.832-0.693,1.34c0.023,3.812,0.023,7.646,0.046,11.458c0,0.508,0.254,0.993,0.693,1.386
		c0.901,0.762,1.825,1.548,2.726,2.333c0.439,0.393,1.063,0.647,1.686,0.693c3.442,0.254,6.907,0.554,10.349,0.901
		c0.092,0,0.185,0.023,0.277,0.023c0.531,0,1.016-0.162,1.409-0.439c0.901-0.693,1.802-1.363,2.703-2.079
		c0.439-0.347,0.693-0.855,0.693-1.386c0-0.647,0-1.317,0-1.964C133.394,16.356,133.025,15.987,132.562,15.964z"/>
	<path d="M157.118,18.112c-0.809-0.092-1.594-0.162-2.402-0.254c-0.023,0-0.069,0-0.092,0c-0.416,0-0.762,0.323-0.762,0.739
		c0,0.785,0,1.571,0,2.333c0,0.416-0.323,0.739-0.739,0.739c-0.046,0-0.069,0-0.115,0c-2.148-0.277-4.32-0.531-6.491-0.762
		c-0.462-0.046-0.855-0.439-0.855-0.878c-0.023-4.551-0.023-9.101-0.046-13.652c0-0.439,0.37-0.762,0.832-0.762h0.023
		c0.809,0.023,1.594,0.046,2.402,0.046h0.023c0.462,0,0.832-0.347,0.832-0.785c0-0.762,0-1.525,0-2.287
		c0-0.439-0.393-0.809-0.855-0.809l0,0c-3.765,0-6.884,0-10.603,0c-0.462,0-0.855,0.347-0.855,0.762c0,0.716,0,1.409,0,2.125
		c0,0.416,0.393,0.762,0.855,0.762c0.809,0.023,1.594,0.023,2.402,0.046c0.462,0,0.855,0.37,0.855,0.785
		c0.023,4.435,0.023,8.894,0.046,13.329c0,0.393-0.323,0.693-0.739,0.693c-0.023,0-0.069,0-0.092,0
		c-0.809-0.092-1.594-0.162-2.402-0.231c-0.023,0-0.069,0-0.092,0c-0.416,0-0.762,0.277-0.762,0.67c0,0.716,0,1.409,0,2.125
		c0,0.416,0.393,0.785,0.855,0.855c4.551,0.601,5.613,0.716,5.729,0.716c0.069,0-0.323-0.069-0.3-0.069
		c0,0,1.779,0.277,13.306,1.917c0.046,0,0.092,0,0.139,0c0.393,0,0.716-0.3,0.716-0.716c0-1.155,0-1.987,0-2.587c0,0,0-0.347,0-0.67
		c0-0.185,0-0.416,0-0.67c0-0.601,0-1.432,0-2.587C157.973,18.574,157.58,18.158,157.118,18.112z"/>
</g>
</svg>
