<?xml version="1.0" encoding="utf-8"?>
<!-- Generator: Adobe Illustrator 17.0.0, SVG Export Plug-In . SVG Version: 6.00 Build 0)  -->
<!DOCTYPE svg PUBLIC "-//W3C//DTD SVG 1.1//EN" "http://www.w3.org/Graphics/SVG/1.1/DTD/svg11.dtd">
<svg version="1.1" xmlns="http://www.w3.org/2000/svg" xmlns:xlink="http://www.w3.org/1999/xlink" x="0px" y="0px" width="3000px"
	 height="3000px" viewBox="0 0 3000 3000" enable-background="new 0 0 3000 3000" xml:space="preserve">
<g id="Layer_1">
</g>
<g id="Layer_2">
	<g>
		<path d="M971.921,2197.463c-54.801,0-104.619,4.982-159.42-4.982c-54.801-9.964-104.619-19.927-154.438-34.873
			c-39.855-14.946-79.71-29.891-119.565-44.837c-99.638-44.837-189.311-99.637-278.985-164.402
			c-69.746-54.801-139.493-104.619-203.39-162.489c-3.378-1.928-6.727-3.754-10.076-5.58
			c35.727,186.415,106.331,360.427,204.889,514.912c3.787,0.459,7.576,0.92,11.427,1.464
			c410.645,184.754,1028.397,229.591,1282.473-223.76c39.855-69.746,59.782-144.474,69.746-219.203
			c14.946-104.619-29.891-194.293-69.746-288.949c-9.964-24.909-29.891-44.837-44.837-64.764
			C1624.547,1838.768,1305.707,2177.535,971.921,2197.463z"/>
		<path d="M1482.734,2374.656c-44.335,32.211-81.711,65.524-131.902,89.674c-50.192,24.151-96.352,45.372-145.441,62.564
			c-41.028,11.334-82.056,22.67-123.085,34.005c-106.963,22.292-211.721,30.666-322.336,30.979
			c-88.637-3.339-174.346-2.647-260.054-11.907c-3.866,0.426-7.649,0.917-11.431,1.408
			C626.96,2711.192,786.362,2810.47,956.9,2877.52c3.334-1.855,6.67-3.708,10.105-5.531
			c440.814-91.902,966.941-418.734,906.02-934.845c-8.752-79.852-36.555-152.021-72.418-218.334
			c-49.402-93.424-138.385-139.617-226.266-192.769c-22.702-14.295-50.537-18.704-74.341-26.041
			C1799.883,1700.862,1741.059,2162.34,1482.734,2374.656z"/>
		<path d="M2000.141,2217.76c-16.934,52.118-27.591,101.038-54.001,150.078c-26.41,49.039-51.281,93.341-80.89,136.103
			c-26.531,33.286-53.06,66.572-79.591,99.858c-73.432,80.906-153.261,149.256-242.566,214.527
			c-73.671,49.399-142.605,100.337-217.388,143.224c-2.877,2.617-5.648,5.237-8.42,7.858
			c188.332,23.627,375.645,10.251,553.025-35.745c1.608-3.46,3.216-6.921,4.923-10.416
			c302.608-333.454,536.146-907.117,183.497-1288.85c-54.016-59.457-118.929-101.501-186.921-134.07
			c-94.88-46.543-194.021-31.612-296.359-22.957c-26.77,1.778-51.88,14.572-75.45,22.629
			C1860.674,1486.234,2084.334,1894.153,2000.141,2217.76z"/>
		<path d="M2326.511,1786.705c16.935,52.119,37.067,97.96,44.526,153.157c7.458,55.197,13.377,105.657,14.558,157.655
			c-1.898,42.523-3.797,85.046-5.695,127.569c-11.853,108.617-36.26,210.835-70.145,316.133
			c-30.566,83.268-56.393,164.995-91.685,243.647c-0.79,3.808-1.492,7.558-2.193,11.306
			c166.251-91.583,309.928-212.504,426.396-353.978c-0.734-3.744-1.466-7.489-2.139-11.32
			c48.815-447.639-99.439-1049.011-609.115-1150.559c-78.648-16.352-155.877-12.211-230.027,1.405
			c-104.118,18.115-175.547,88.468-253.254,155.623c-20.611,17.173-33.405,42.283-47.739,62.655
			C1783.7,1276.864,2204.414,1475.414,2326.511,1786.705z"/>
		<path d="M2969.542,1582.941c-223.622-390.84-697.041-790.22-1169.065-572.793c-73.239,32.999-133.285,81.743-185.27,136.343
			c-73.585,75.854-90.02,174.756-113.414,274.76c-6.581,26.009-2.172,53.843-1.794,78.75
			c98.362-347.275,555.432-433.935,837.183-253.862c44.335,32.211,87.567,57.464,126.045,97.735
			c38.478,40.272,72.926,77.615,104.446,118.989c23.458,35.518,46.917,71.036,70.376,106.553
			c54.254,94.839,94.591,191.883,129.071,296.987c24.215,85.33,51.358,166.631,69.037,251.006c1.599,3.544,3.236,6.991,4.872,10.436
			c80.668-171.813,125.83-354.092,136.899-537.003C2975.133,1588.244,2972.339,1585.644,2969.542,1582.941z"/>
		<path d="M2028.079,802.538c54.801,0,104.619-4.982,159.42,4.982c54.801,9.964,104.619,19.927,154.438,34.873
			c39.855,14.946,79.71,29.891,119.565,44.837c99.637,44.837,189.311,99.638,278.985,164.402
			c69.746,54.801,139.492,104.619,203.39,162.489c3.378,1.928,6.727,3.754,10.076,5.58
			c-35.727-186.415-106.331-360.427-204.889-514.912c-3.788-0.459-7.576-0.92-11.427-1.464
			c-410.645-184.754-1028.397-229.591-1282.473,223.76c-39.855,69.746-59.782,144.474-69.746,219.203
			c-14.946,104.619,29.891,194.293,69.746,288.949c9.964,24.909,29.891,44.837,44.837,64.764
			C1375.453,1161.233,1694.293,822.465,2028.079,802.538z"/>
		<path d="M1517.266,625.344c44.335-32.211,81.711-65.525,131.902-89.674c50.192-24.15,96.352-45.372,145.441-62.564
			c41.028-11.334,82.056-22.67,123.085-34.005c106.963-22.292,211.721-30.666,322.336-30.979
			c88.637,3.339,174.345,2.647,260.054,11.907c3.866-0.426,7.649-0.916,11.431-1.408
			C2373.04,288.807,2213.638,189.53,2043.1,122.479c-3.334,1.855-6.67,3.708-10.105,5.532
			c-440.814,91.902-966.941,418.734-906.02,934.845c8.752,79.852,36.555,152.021,72.418,218.334
			c49.402,93.424,138.385,139.617,226.266,192.769c22.702,14.296,50.537,18.705,74.341,26.041
			C1200.117,1299.138,1258.941,837.66,1517.266,625.344z"/>
		<path d="M999.859,782.239c16.934-52.118,27.591-101.038,54.001-150.078c26.41-49.039,51.281-93.341,80.89-136.103
			c26.531-33.286,53.06-66.572,79.591-99.858c73.432-80.906,153.261-149.256,242.566-214.528
			c73.671-49.399,142.605-100.336,217.388-143.223c2.877-2.616,5.648-5.237,8.42-7.858
			c-188.332-23.627-375.645-10.251-553.025,35.745c-1.608,3.46-3.216,6.921-4.923,10.415
			C822.16,410.206,588.621,983.869,941.27,1365.601c54.016,59.458,118.929,101.502,186.921,134.07
			c94.88,46.543,194.021,31.612,296.359,22.957c26.77-1.778,51.88-14.573,75.45-22.629
			C1139.326,1513.766,915.666,1105.846,999.859,782.239z"/>
		<path d="M673.488,1213.295c-16.935-52.119-37.067-97.96-44.526-153.157c-7.458-55.197-13.377-105.657-14.558-157.655
			c1.898-42.523,3.797-85.046,5.695-127.569c11.853-108.616,36.26-210.835,70.145-316.133
			c30.566-83.267,56.393-164.994,91.685-243.647c0.789-3.808,1.492-7.558,2.193-11.307
			C617.872,295.41,474.195,416.332,357.727,557.804c0.734,3.744,1.466,7.49,2.139,11.32
			c-48.815,447.638,99.439,1049.011,609.115,1150.558c78.648,16.352,155.877,12.211,230.027-1.405
			c104.118-18.115,175.547-88.468,253.254-155.623c20.611-17.173,33.405-42.283,47.739-62.655
			C1216.3,1723.136,795.586,1524.586,673.488,1213.295z"/>
		<path d="M662.817,1753.862c-44.335-32.211-87.567-57.464-126.045-97.735c-38.478-40.272-72.926-77.616-104.445-118.989
			c-23.458-35.518-46.917-71.036-70.376-106.553c-54.254-94.839-94.591-191.883-129.071-296.987
			c-24.215-85.33-51.358-166.631-69.037-251.006c-1.599-3.545-3.236-6.991-4.872-10.436
			c-80.668,171.813-125.83,354.092-136.899,537.003c2.794,2.598,5.588,5.197,8.384,7.901
			c223.622,390.84,697.041,790.22,1169.065,572.793c73.239-33,133.285-81.743,185.27-136.343
			c73.585-75.854,90.02-174.756,113.414-274.76c6.581-26.008,2.172-53.843,1.794-78.75
			C1401.638,1847.276,944.568,1933.935,662.817,1753.862z"/>
	</g>
</g>
</svg>
